<svg xmlns="http://www.w3.org/2000/svg" viewBox="0 0 240 240" role="img" aria-label="SMARTPOULTRY chicken farm lightbulb logo">
  <rect width="240" height="240" rx="32" fill="#ffffff"/>
  <path d="M42 190c28-13 62-22 101-27 28-4 55-2 78 5" fill="none" stroke="#5a351c" stroke-width="10" stroke-linecap="round"/>
  <path d="M97 163l50-34 52 34" fill="none" stroke="#5a351c" stroke-width="10" stroke-linecap="round" stroke-linejoin="round"/>
  <path d="M121 157v-22h53v30" fill="none" stroke="#5a351c" stroke-width="9" stroke-linecap="round" stroke-linejoin="round"/>
  <path d="M143 153h10m12 0h10m-32 16h10m12 0h10" stroke="#5a351c" stroke-width="7" stroke-linecap="round"/>
  <path d="M52 182c-15-50-5-104 28-139" fill="none" stroke="#5a351c" stroke-width="10" stroke-linecap="round"/>
  <path d="M68 84c18-25 51-36 80-24 22 9 35 29 30 51-5 25-31 40-60 34-27-5-43-23-50-61Z" fill="#ffffff"/>
  <path d="M70 83c18-27 50-38 78-27 18 7 29 22 32 39" fill="none" stroke="#5a351c" stroke-width="7" stroke-linecap="round"/>
  <path d="M58 72c1-24 19-34 40-20 2-27 27-39 49-17 14 14 17 34 7 54-26-17-58-22-96-17Z" fill="#e1191d"/>
  <path d="M126 36c14-11 30-4 35 15 5-15 23-14 30 1 7 17 2 35-13 49-11-29-29-51-52-65Z" fill="#e1191d"/>
  <path d="M178 94c18 5 34 17 44 33-21-1-40 5-57 17-1-20 3-37 13-50Z" fill="#f6b21a"/>
  <path d="M149 145c-14 17-18 37-12 57 15 1 25-9 30-27 8 17 20 23 35 14-1-22-14-39-39-54Z" fill="#e1191d"/>
  <circle cx="131" cy="88" r="9" fill="#2a1a10"/>
  <path d="M166 41c0-18 14-32 32-32s32 14 32 32c0 11-6 21-15 27-5 3-7 7-7 12h-21c0-5-2-9-7-12-9-6-14-16-14-27Z" fill="#f6b21a"/>
  <path d="M186 82h25m-22 11h19m-15 10h11" fill="none" stroke="#2a1a10" stroke-width="6" stroke-linecap="round"/>
  <path d="M198 78V57m10 21V57m-10 0c0-7 10-7 10 0" fill="none" stroke="#ffffff" stroke-width="4" stroke-linecap="round" stroke-linejoin="round"/>
  <path d="M198 16V6m-31 18-8-8m76 8 8-8m-91 25h-13m112 0h-13" fill="none" stroke="#f6b21a" stroke-width="7" stroke-linecap="round"/>
</svg>
